<!DOCTYPE svg PUBLIC "-//W3C//DTD SVG 20010904//EN" "http://www.w3.org/TR/2001/REC-SVG-20010904/DTD/svg10.dtd">
<svg version="1.0" xmlns="http://www.w3.org/2000/svg" width="256px" height="256px" viewBox="0 0 256 256" preserveAspectRatio="xMidYMid meet">
 <g id="layer101" fill="#fff1e6" stroke="none">
  <path d="M142.3 238.6 c-10 -3.2 -20.6 -12.4 -24.4 -21.1 -1.5 -3.4 -2.9 -4.9 -5.7 -6.1 -5.4 -2.2 -7.9 -5 -10.3 -11.3 -2.2 -6.1 -2.9 -17.2 -1.6 -25.6 0.8 -5.1 0.8 -5.1 -3.7 -8.3 -6.1 -4.4 -6.9 -8.1 -3 -15.2 1.5 -2.8 5.1 -7.6 8 -10.6 4.6 -4.7 5.7 -5.4 9.1 -5.4 2.8 0 5.1 0.9 8.2 3.2 4.3 3.1 4.3 3.1 10.6 0 10.4 -5.1 9.9 -8.5 -2.5 -15.7 -12.3 -7.2 -27.1 -18.7 -38.1 -29.5 l-10 -9.8 -20.6 6.4 c-13 4 -21.5 6.1 -23 5.8 -1.3 -0.4 -3.2 -1.7 -4.2 -3 -4.2 -5.4 -3.7 -30.6 1 -47.5 2.7 -9.8 10 -25.2 13 -27.2 5.3 -3.8 7.6 -2.7 25.5 12.3 9.2 7.8 17.2 13.8 17.8 13.6 13.5 -6.3 33.5 -13 48.9 -16.3 11.5 -2.5 35.3 -2.5 46 0 16.9 4 30.5 14.1 37.9 28.3 6.8 13 8.3 25.1 4.8 38.8 -3.7 14.4 -9.5 22.3 -27.4 37 -16.3 13.4 -38 36.5 -45.6 48.5 -10.7 17 -17.3 25.5 -22.5 28.9 -2.7 1.8 -5.7 3.2 -6.7 3.2 -2.5 0 -2.3 0.9 1.3 6.3 7.3 11 17.2 16.1 30.4 15.5 9.6 -0.4 15.8 -3.1 22.3 -9.6 6.7 -6.6 9.2 -13.1 10.2 -26.2 0.7 -9.4 1.3 -12.1 3.9 -17.4 3.7 -7.6 10.1 -13.8 17.8 -17.3 6.9 -3.2 13.8 -4.2 14.6 -2.1 0.9 2.5 -0.7 3.8 -6.8 5.3 -7.3 1.9 -11.4 4.4 -16.2 9.9 -4.6 5.2 -7.3 12.3 -7.3 19.2 0 18.8 -8.6 33.6 -23.7 40.6 -5.6 2.7 -8.2 3.3 -15.3 3.5 -5.3 0.2 -10.1 -0.2 -12.7 -1.1z m-13.5 -35.2 c2.1 -1.7 9 -10.9 15.6 -20.9 9.9 -14.8 14.3 -20.2 25.5 -31.8 7.5 -7.7 18.9 -18.5 25.4 -23.9 14.1 -11.8 16.7 -14.6 20.6 -21.9 10.7 -19.8 7 -43.1 -9.3 -58.7 -7.7 -7.4 -14.2 -10.8 -25.9 -13.4 -22.6 -5 -49.6 -0.9 -81.8 12.3 -9.5 4 -9.5 4 -12.4 19 l-2.9 15 8.9 9 c10.3 10.4 24.1 21.1 37.9 29.6 11.2 6.8 13.4 9.8 11.6 16.1 -1.2 4.7 -2.5 5.8 -11.2 10.1 -14.3 7.1 -22.8 18.2 -25.1 33.1 -1.2 7.9 0 18.7 2.8 24 3.5 6.7 13.4 7.8 20.3 2.4z m-22.9 -44.6 c1.3 -2.3 4.4 -6.3 6.8 -8.9 2.5 -2.7 4.2 -5.3 3.8 -5.9 -0.3 -0.5 -1.9 -1.7 -3.4 -2.5 -2.5 -1.2 -3.1 -1.2 -5 0.2 -3.2 2.2 -11.1 13.2 -11.1 15.3 0 1.7 4.3 6 5.9 6 0.3 0 1.7 -1.9 3 -4.2z m-48.1 -74.9 c10.8 -3.4 19.8 -6.3 19.9 -6.4 0.2 -0.1 1.6 -6.6 3.2 -14.4 l2.9 -14.3 -15 -12.6 c-8.3 -7 -16.1 -13.3 -17.3 -13.9 -2.8 -1.5 -3.1 -1.2 -7.8 8.2 -7.1 14.2 -10.3 29.9 -9.5 46.9 0.5 10.2 1 12.6 2.9 12.6 0.6 0 9.9 -2.8 20.7 -6.1z"/>
</g>

</svg>