<!DOCTYPE svg PUBLIC "-//W3C//DTD SVG 20010904//EN" "http://www.w3.org/TR/2001/REC-SVG-20010904/DTD/svg10.dtd">
<svg version="1.0" xmlns="http://www.w3.org/2000/svg" width="256px" height="256px" viewBox="0 0 2560 2560" preserveAspectRatio="xMidYMid meet">
<g id="layer101" fill="#fff1e6" stroke="none">
 <path d="M1335 2261 c-46 -21 -112 -89 -127 -132 -7 -21 -17 -29 -33 -29 -13 0 -85 -16 -159 -35 -149 -38 -225 -44 -250 -19 -9 8 -16 19 -16 24 0 14 -32 21 -46 9 -36 -29 7 -91 76 -109 34 -9 65 -8 151 4 134 20 265 20 346 1 70 -16 213 -85 313 -149 65 -43 294 -211 663 -488 113 -85 206 -148 215 -146 58 11 -20 109 -352 445 -189 193 -189 193 -145 212 60 26 134 34 194 21 109 -23 122 -23 129 -4 14 36 -46 62 -164 71 -83 6 -167 -12 -227 -48 -32 -20 -32 -20 -102 31 -70 52 -70 52 -37 81 19 16 60 41 92 56 51 23 73 27 154 27 91 1 95 2 98 23 5 34 -37 46 -133 40 -100 -6 -170 -32 -247 -92 -59 -47 -59 -47 -126 -19 -37 15 -71 32 -77 37 -27 24 151 137 215 137 28 0 44 35 25 54 -42 41 -240 -57 -292 -144 -17 -29 -19 -29 -73 -24 -30 4 -73 9 -94 13 -40 6 -40 6 -5 45 18 22 49 45 67 53 38 16 50 37 32 58 -15 19 -16 19 -65 -4z m98 -236 c83 -17 168 -54 270 -117 95 -58 143 -96 266 -210 85 -80 256 -258 221 -232 -248 187 -555 408 -629 452 -53 31 -132 71 -176 89 -90 37 -72 44 48 18z"/>
 <path d="M612 1894 c-43 -30 -23 -59 38 -56 53 4 93 -28 192 -153 154 -194 266 -287 444 -372 125 -59 263 -94 384 -96 95 -2 95 -2 95 23 0 24 -3 25 -110 38 -321 37 -550 169 -750 432 -132 174 -225 232 -293 184z"/>
 <path d="M110 1488 c-61 -32 -83 -66 -87 -135 -3 -47 0 -65 19 -95 31 -49 454 -402 708 -590 361 -268 525 -351 737 -377 190 -23 468 32 818 164 185 69 235 95 235 120 0 33 -17 35 -105 14 -318 -75 -669 -94 -845 -43 -206 59 -662 374 -1160 804 -80 68 -161 132 -180 142 -46 24 -87 23 -140 -4z m245 -159 c592 -508 1019 -799 1253 -855 90 -21 293 -29 422 -16 57 6 106 9 108 7 2 -2 -36 -16 -84 -31 -233 -71 -486 -100 -621 -71 -159 34 -291 103 -546 285 -223 159 -724 565 -782 633 -29 35 -32 67 -10 109 19 38 41 49 90 50 37 0 51 -9 170 -111z"/>
 </g>

</svg>