<!DOCTYPE svg PUBLIC "-//W3C//DTD SVG 20010904//EN" "http://www.w3.org/TR/2001/REC-SVG-20010904/DTD/svg10.dtd">
<svg version="1.0" xmlns="http://www.w3.org/2000/svg" width="256px" height="256px" viewBox="0 0 256 256" preserveAspectRatio="xMidYMid meet">
 <g id="layer101" fill="#fff1e6" stroke="none">
  <path d="M97.6 249.1 c-0.4 -0.5 0 -3.8 0.8 -7.3 0.8 -3.4 1.7 -12.2 2 -19.3 0.6 -13 0.6 -13 -5.7 -19.3 -6 -5.9 -6.7 -6.4 -12.6 -7.2 -14.3 -2 -21.9 -10.7 -20.9 -24.1 0.9 -13 12.6 -20.6 47.8 -31.3 21.2 -6.4 34 -12.8 43.1 -21.3 11.9 -11.2 15.8 -19.9 16.8 -37.3 0.5 -10.2 0.8 -11.5 2.5 -11.8 2.5 -0.5 3.6 1.4 3.6 6.4 0 2.5 1.3 7 3.4 11.5 3.9 8.6 6.2 17.9 8 33.4 1.3 11 1.3 11 3.4 6.4 10.2 -21.9 4.6 -50 -13.1 -66.5 -11.7 -10.9 -25.5 -15.5 -46.2 -15.6 -15.6 0 -26.5 2.2 -38.9 8.1 -14.6 6.9 -23.2 15.8 -28.1 29.2 -2.4 6.9 -4.9 9.5 -6.5 6.9 -1.2 -2 -0.4 -5.1 3.8 -14 2.7 -5.8 5.3 -9.3 11.3 -15.2 7.6 -7.5 7.8 -7.9 6.7 -10.8 -2.2 -6.4 2.2 -15.2 8.2 -16.5 2.2 -0.5 3.2 -1.4 3.6 -3.3 3.2 -13 15.4 -22.2 29.3 -22.2 3.1 0 7.3 0.5 9.4 1.1 3.1 0.8 4.7 0.6 9.7 -1.2 8.1 -2.9 18.1 -2.4 23.6 1.2 5 3.4 9.4 11.2 10.1 18.4 0.5 4.9 0.9 5.7 3.9 7.4 6.4 3.8 7.8 9.4 4.4 17.6 -1.2 2.9 -1.1 3.3 1.9 6.5 8.2 8.8 14.2 20.5 16.7 32.1 3.2 15 -0.5 34.7 -8.7 46.5 -3.4 4.8 -3.9 6.2 -3.9 11.2 0 8 -2.5 23.6 -5 30.6 -2.8 8.2 -6.7 14 -15.1 22.1 -7.1 7 -7.1 7 -6.5 21 0.3 7.7 1.2 16.4 2 19.4 1.6 6.3 1.2 8.3 -1.8 7.9 -3.1 -0.4 -4.5 -6.1 -5.7 -21.7 -0.5 -7.4 -1.1 -13.6 -1.3 -13.9 -0.3 -0.2 -3.1 1.2 -6.3 3.2 -12.4 7.6 -22.2 7.7 -34.4 0.1 -3.1 -1.9 -5.9 -3.5 -6.2 -3.5 -0.2 0 -0.7 5.7 -1 12.8 -0.6 14.7 -2.7 23.2 -5.7 23.2 -1 0 -2.1 -0.4 -2.4 -0.9z m49.6 -38.3 c4.6 -3.1 11.8 -9.2 16.1 -13.4 14.1 -14.1 17.7 -25.6 17.8 -57.4 0 -9.7 -0.2 -19.4 -0.6 -21.5 -1.6 -9.5 -5.7 -25.5 -6.5 -25 -0.4 0.3 -1.1 2 -1.4 3.9 -1.2 6.3 -7.5 17.4 -13.4 23.3 -11.1 11.2 -23.3 17.6 -49.7 25.6 -8.2 2.6 -18.1 5.9 -22 7.5 -7 2.9 -7 2.9 -6.7 8.3 0.8 16.8 10 31.8 27.5 45 11.6 8.8 14.7 10 23.4 9.7 6.8 -0.3 7.5 -0.6 15.5 -6z m-64.2 -21.3 c0 -0.3 -0.9 -2.3 -2 -4.4 -2.4 -4.8 -6 -17.6 -6 -21.3 0 -3.1 -0.8 -3.5 -3.2 -1.5 -3.3 2.7 -4.8 6.2 -4.8 11.6 0 6.8 2.6 11.2 8.3 14 4 2 7.7 2.7 7.7 1.6z m92.8 -139.7 c2.1 -2.1 1.5 -7.5 -1 -9.2 -3 -2.1 -3.4 -2 -4.6 1.2 -0.5 1.5 -1.3 3.5 -1.7 4.4 -0.5 1.2 0.1 2.1 2.2 3.2 3.5 1.9 3.6 1.9 5.1 0.4z m-86.4 -1.2 c3.4 -1.4 3.4 -1.4 2.1 -5.2 -1.5 -4.5 -2.9 -5.2 -5.6 -2.8 -2.4 2.2 -2.6 9.4 -0.2 9.4 0.2 0 1.9 -0.6 3.7 -1.4z m18.1 -6.2 c3.3 -0.9 12.5 -1.8 20.5 -2.1 12.9 -0.5 15.5 -0.3 23.5 1.7 5 1.2 9.5 2.5 10.2 2.7 1.6 0.6 5.3 -9.9 5.3 -15 -0.1 -9 -6.4 -17 -14.4 -18.2 -4.3 -0.7 -11.6 0.8 -11.6 2.4 0 0.4 1.4 2 3.1 3.7 3.8 3.6 7.1 9.8 6.3 11.8 -1.1 2.9 -4.1 1.7 -6.7 -2.6 -5.1 -8.7 -12.6 -12.8 -23 -12.9 -13.9 -0.1 -24.7 8.8 -24.7 20.4 0 6.2 1.8 11 3.9 10.2 0.9 -0.4 4.3 -1.3 7.6 -2.1z"/>
  <path d="M61.6 219.5 c-22.1 -9 -35.6 -28.1 -35.6 -50 0 -13.8 5.6 -29.8 13.8 -39.7 9.2 -11.1 17.4 -16.5 44.8 -30 21.8 -10.7 28.8 -15.7 30 -21.6 0.8 -3.8 2.7 -5.7 5 -4.8 2.3 0.9 1.2 6.8 -2.2 11.8 -4.1 5.9 -10.6 10.1 -29.8 19.3 -26 12.5 -36 19.2 -43.6 29 -13.6 17.6 -16 43 -5.7 59.9 5.8 9.3 18.3 18.8 29.9 22.6 4.3 1.3 5.1 2.1 4.2 4.4 -0.8 2.2 -3.9 2 -10.8 -0.9z"/>
</g>

</svg>