<svg viewBox="0 0 500 185.8" xmlns="http://www.w3.org/2000/svg" stroke="none">
<g fill="#FFF1E6">
    <path d="M304 184.8c-2.2-1.4-3.6-4.4-5.6-11.4a87.8 87.8 0 012.4-41.2c1.9-6.9 2.3-7.4 5.7-7.4 1.5 0 2.7.2 2.7.5l-1.8 10.3c-2.6 13-3.3 21.6-2.6 28.6.6 5.8 2.1 11.5 3 11.3 1.2-.1 5.8-14.8 8.3-26.4a309 309 0 004.7-29.5c1-7.3 2-15.5 2.5-18.3 1.4-7.9.4-7.7-5.4 1-5.9 8.7-9 11-15 11-4 0-6.5-1.1-7.3-3.1-.8-2-1.7-7.5-1.7-10 0-1-.3-1.8-.5-1.7-.4.1-2.2 2-4.3 4.3-2 2.3-4.9 5-6.3 6-5 3.6-10.3 2.8-14.5-2.4-2-2.5-2-2.5-6.7 4.5-5.6 8.5-7.2 10.3-10.9 12-2.1 1-3.6 1.3-7 1.3-4.1 0-4.1 0-6.3-2.4-2.3-2.6-4-7.6-4.8-13.2-.5-3.8-.7-4-2.5-1.8-3.3 4-8.5 5.3-13 3.2-3.5-1.6-4.4-4-5.3-14.9a65 65 0 00-1.1-9.2c-.5-.4-3.6 3-7.1 7.9a75.5 75.5 0 00-8.9 16.7c-2.5 6.4-3.1 7.5-5.5 8.6-1.8 1-2 1-3.2-.2-1-1-1.2-2-1.3-5.8-.1-2.5-.3-4.9-.5-5.3-.5-1.5-1.3.6-1.3 3.3 0 3.6-1 6.6-2 6.2-.6-.3-.7-1.7-.7-7.4 0-3.9-.2-7-.4-7-.3 0-1.6 2-3 4.5a31 31 0 01-10 11.5c-7 4.6-13.2 3.7-16.4-2.5a47 47 0 01-1.3-21.5c1-7.8 1.8-9.8 4.2-11.2 2.4-1.5 7-2.6 7.7-1.9.4.4.3 3.2-.3 8.2-1.3 12.1-1.5 15.2-1 16.1.4.5.7.7.9.6l1.1-8.8c.5-4.7 1.2-9 1.4-9.6l.7-2c.5-1.4.4 1.8-.4 11.9-1 12.5-1 13 .2 14.6 1 1.1 1.2 1.2 2.8.5 2.4-1 3.7-2.8 9-13.2 4.7-9 4.7-9 5-19.5.8-23.6 2.6-38.3 6.7-55.4 1.8-7.5 2.7-8.7 6.9-9 5.8-.5 6.4 1.8 4 15.5-2.1 12-3.2 24.2-4.4 51.3l-.4 7.5 6.5-6.4c6.2-6 6.7-6.4 9.6-7 2.7-.6 3.5-.5 6 .3 4.4 1.4 4.7 2.4 5.6 16a63 63 0 001.2 11c1.2 0 2.7-1.3 5.1-4.7 2.8-3.8 4-6 8.8-15.8a25 25 0 0134.8-12.6 33 33 0 007.7 2.5c1.9.2 3.8.7 4 1 .4.3-.3 4.9-1.7 12-2.6 12.6-2.9 16-1.4 16 .5 0 4.2-3.3 8.2-7.2 7.3-7.3 7.3-7.3 8.2-12.6.5-2.9 1.3-5.8 1.8-6.5 1-1.4 4.7-3 5.6-2.5.3.2.3 6.5.2 14.1-.3 10.4-.2 13.7.2 13.4.4-.2.7-1.3.7-2.4 0-2 2-20.9 2.5-23.6.4-1.8 2.3-1.6 2.8.2.2.8 0 5.2-.3 9.7-.7 9.8-.8 15.2-.2 15.2.5 0 3.2-3.5 6-7.7 1-1.3 4.3-7.7 7.5-14 6.6-13.1 6.5-13 11.4-11.8 2.8.7 2.8.7 2.5 3.8l-.6 7.8-1.1 11.2c-.5 3.6-1.4 13-2.2 20.9-4.6 46.2-9.6 67-17.6 73-2.7 2.2-8.4 2.6-11 1zm-45-85.1l10.6-16.4c.5-1 .2-1.6-3.4-5-2.2-2.2-4.6-4.1-5.5-4.3-3-.8-7.3 3.2-10.6 9.8-2.9 5.7-3.5 7.7-4 13.9-1 8.6.3 17.2 2.3 17.2.3 0 5-6.9 10.5-15.2z"/>
    <path d="M61 170a81 81 0 0114.8-7.5c2-.7 5.5-2.2 8-3.4 6.8-3.1 9.5-4 23.9-8 18-4.9 47.8-9.4 75.8-11.5a294.7 294.7 0 0151.3.3l10.6.8c12.8.8 16.5 1.8 14.7 3.9-.7.8-.8 1 0 1.6 1 .8 5.9 1.6 7.3 1 .6-.2 1.3-.2 1.5.1.6 1.1-5.6 4.6-12 6.7a31.4 31.4 0 01-21.5-.3c-4.3-1.3-7.1-1.7-16.5-2.3-2.4-.2-5.3-.4-6.3-.6l-29.4-.5a254 254 0 00-34.9.5 155.6 155.6 0 00-18.7 3.3 449.6 449.6 0 01-19 3.4c-7.8 1.2-13.2 2.3-18 3.6l-4.2 1c-4.8 1.3-15 4.3-22 6.7-5.3 1.7-5.4 1.8-5.4 1.1zM461.7 154.3c-4.1-2-6-5.9-6-12.5a54 54 0 0110.4-28.1c2-3 3.5-5.8 3.5-6.2 0-1-4.4-12.4-5-13.3-.5-.6-1-.2-2.3 1.4-9.4 11.6-13.3 15-17.8 15.3-4 .4-6.8-1.1-9.7-5-1.6-2-1.6-2-6.6 5.5-5.6 8.4-7 10.1-10.1 11.5-2.7 1.3-10.1 1.8-12 .7-3.3-1.7-6-9-7-18.6l-.7-4a28 28 0 00-4.7 4.2c-4.6 4.6-6.9 5.9-10.6 5.9-2.4 0-6.2-2.1-7.8-4.4-.8-1-1.6-2.2-1.9-2.4-.1-.3-2.7 3.1-5.6 7.5a64 64 0 01-7.1 9.4c-2.7 2-6 3-10.4 3-3.8 0-4 0-6-2.2-4.7-4.9-7.2-21.3-4.6-30.7 2.5-9.4 8.9-17.7 15.8-20.4 8-3.3 15-3.2 22.1.4 2.4 1.2 5.2 2.2 7.4 2.5 2 .2 3.9.8 4.3 1.2.5.5.1 3.1-1.8 12.4-2.5 12-2.7 13.6-2.1 15 .2.9.5.9 1.8 0 .7-.6 4-3.6 7-6.6 5-4.7 5.9-6 7.3-9.3 1.8-4.6 5.3-9.8 7.8-12 3.5-3 9.4-5.3 15-6 3.7-.5 9.6.8 14.3 3.2 2.5 1.2 5 2 7 2.2 1.8.1 3.5.5 3.8.8.5.5-.6 7.6-3.2 19.6-1 5.1-1 8.5.1 8.5.5 0 4.3-3.3 8.3-7.3 7.4-7.3 7.4-7.3 6.6-11.5-1-5-1.1-8.6-.3-12.4.6-2.8 3.3-7.2 4.4-7.2.4 0 1.9 1 3.3 2.4 3.1 3 5.4 3.3 10 1.6 4.7-1.7 4.6-1.8 2.9 1.2-2 3.5-3.4 5-5.3 5.8-1 .3-1.6.9-1.6 1.2 0 1 8 20.7 8.4 20.7.2 0 3.3-2.6 7-5.7 7.4-6.6 8.5-7.3 9.6-6.4 1.5 1.4-.9 4.8-9.9 14.2-4.3 4.6-4.3 4.6-2.6 10.1 3.2 10 3.6 19.2 1.2 27-2.8 9.1-13 17.7-21.5 18.3-2.3.1-4 0-5.1-.5zm6.4-8.1c1-1.2 3-4.3 4.3-7 2.3-4.6 2.4-5 2.6-11 .2-6.5-1-13.8-2.4-14.2-1.3-.4-7.4 12.1-9.3 19.3-1.3 4.8-1.5 13.4-.3 14.8 1 1.2 2.7.6 5-2zm-103.7-44.5c14.2-21.4 13.1-18.7 9-22.9-4.5-4.5-6-5.4-8.2-4.5-4.4 1.8-10.2 11.4-11.7 19.5-1 4.5-1 13.1-.4 17.5.5 2.4 1.4 3.8 2.4 3.4.3 0 4.3-5.9 9-13zm60.9-1.2c13-19.8 12-17.5 9.8-20.1-2.3-2.9-6-6-7.5-6.5-4.2-1-11.1 8-13.5 17.4a40 40 0 00-1 13.2c.2 8.4.7 10.4 2.2 10.4.3 0 4.8-6.5 10-14.4zM14 144.4c-4.6-1.7-7-3.3-10.8-7-3-2.7-3.2-3.1-3.2-5.3 0-2 .2-2.4 1.1-2.4.6 0 2 .9 3.1 1.9 3 2.6 4.1 3 7.6 3 10.8 0 34.4-8.9 46.6-17.6 8.7-6.1 20-18.4 23.6-25.4 3.7-7.4 5.8-16.5 4.3-18.8-.8-1.3-6.4-2-10.4-1.3-5.3 1-19 4.5-27.8 7.3-11.8 3.8-24.6 7-27.7 7-4.6 0-10.5-2.8-15-7.1-5-5-5.3-6.3-2.1-12.6a86.8 86.8 0 0112.2-19C25 35.2 34.4 26 44.5 18.3c4.5-3.3 5.1-6.2.8-3.6a71 71 0 01-9.5 4.6c-.8 0 3-3.3 7.9-7A56 56 0 0173.4 0c2.8 0 5.6.4 7.3 1C86.2 2.6 94 9.8 98.5 17.1c2 3.3 2.1 3.7 1.9 7.4-.4 6.6-5.2 15-8.5 15-.7 0-2-.5-2.6-1.3-1.1-1.1-1.4-1.9-1.4-4.2 0-1.6.4-4.4.8-6.3 1-4 1-6.8.2-9.6-.5-1.8-1-2.2-2.6-2.5-2.3-.4-8 .8-13.3 3-13.2 5.5-31.9 22.8-47.4 44-4 5.6-5.7 8.6-5.1 9.2.2.2 5.3-.8 11.2-2.2 37-8.8 44.6-9.7 52.5-6 2 1 4.8 2.8 6.3 4.2 5 4.8 8.3 13.1 7.5 19.8a57 57 0 01-5.2 16.1 87.4 87.4 0 01-29.4 29.6c-12 6.9-27.3 11.5-40 12-5.4.3-6.5.2-9.4-1zM57 10.4c3.1-1.6 7-2.7 17.1-4.8 8.6-1.8 9.4-2.7 2.8-3.2C70.8 2 60.8 5 59.8 7.6c-.4 1-.8 1.2-1.8 1-1.1-.3-4.7 1-4.7 1.6l-.4 1.1c-.4 1.3.8 1 4.2-.8zM107.3 125c-2.4-1.7-2.9-19.8-.8-31.8 1.5-8.9 2.5-11.9 4.5-14 1.2-1.4 2-1.6 4-1.6 1.3 0 2.7.2 2.8.5.2.3-.2 5.3-.9 11-.6 5.8-1 10.6-.8 10.8.8.8 2.2-.8 5-6.3 4-7.7 11.6-20.1 15-24.3 2.6-3.2 2.6-3.3 5.5-3.3s2.9 0 2.7 15.5c0 12-.3 15.5-.8 15.7-1.1.3-5-3.8-5.6-6.2-.3-1.2-.6-3.7-.6-5.6 0-4-.3-5.1-1.6-5.1-3.4 0-18.2 27.6-20.7 38.8-.4 2.2-1.3 4.4-1.9 4.9-1.1 1-4.8 1.6-5.8 1zM155.4 68.8c-1.2-1.2-1.4-3.2-.5-5.2 1.6-3.3 7-3 8.6.6.8 2 .5 3.4-1.6 4.8-1.7 1.3-5.1 1-6.5-.2z"/>
  </g>
  <path d="M225 35V21.5h7.5c8.3 0 10.6.7 12 3.4 1.4 2.7 1 5.3-1.1 7.5-2.2 2.1-2.4 2.6-.8 3.1 3 1 4.2 5.7 2.4 9.2-1.5 2.9-4.3 3.7-12.7 3.7H225V35zm15.7 8.8c1.4-1.5 1.7-3 .7-4.9-1.2-2.2-2.2-2.5-7.2-2.5-4.8 0-4.8 0-4.8 4.4 0 4.3 0 4.3 5 4.3 4.5 0 5 0 6.3-1.3zm-.5-12a6 6 0 00.2-5.3c-.8-1.5-3.5-2.2-7.5-2.2-3.5 0-3.5 0-3.5 4.4 0 4.5 0 4.5 5 4.3 4.2-.2 5.1-.4 5.8-1.3zM249.7 39.2c0-9.4 0-9.4 2-9.4 1.4 0 1.9.2 1.9 1 0 1.7.6 1.7 1.8.2 1-1 2-1.4 3.9-1.6 2.6-.3 2.6-.3 2.4 1.2-.2 1.5-.4 1.6-2.8 2-4.1.4-4.5 1-4.8 8.9-.3 6.7-.3 6.7-2.3 6.8-2 .2-2 .2-2-9.1zM264.5 39.2c0-9.4 0-9.4 2.2-9.4s2.2 0 2.1 9.2c-.1 9.2-.1 9.2-2.2 9.3-2 .2-2 .2-2-9.1zM275.8 46.6c-3.2-3.2-3.8-9-1.5-13.5 2-3.8 7.5-5 11.3-2.5 2 1.3 2 1.3 2-4.1 0-5.5 0-5.5 2.2-5.5s2.2 0 2.2 13.7 0 13.7-2.2 13.7c-2 0-2.2 0-2.2-1.4s0-1.4-1.8 0c-1.5 1.2-2.5 1.4-5 1.4-2.9 0-3.3-.1-5-1.8zm10.2-2.5c1.4-1.4 1.6-2 1.6-4.7 0-5.3-2.8-8.2-6.7-7.1-3.2 1-4.7 6.1-3 10.3 1.5 3.5 5.4 4.2 8.1 1.5zM298.9 47.2c-2.1-1.6-3-4.1-3-8.2 0-4.2 1.1-6.8 3.8-8.6 2.6-1.7 7-1.5 9 .5 1.5 1.3 1.5 1.3 1.8 0 .2-.9.7-1.1 2.2-1.1 1.8 0 1.8 0 1.8 9.3s0 9.3-1.8 9.3c-1.6 0-2-.2-2.2-1.4-.4-1.4-.4-1.4-2 0-2.3 2-7.3 2-9.6.2zm9.8-3.2c1.8-2.1 2.1-5.6.8-8.9-.6-1.5-3-3.1-4.5-3.1-3.3 0-5.7 4-5 8.4.7 5.1 5.7 7.2 8.7 3.6zM319.5 34.7c0-13.7 0-13.7 1.9-13.7 2 0 2 0 2 13.7s0 13.7-2 13.7-2 0-2-13.7zM341.8 47.7c-2.9-1.1-3.3-1.6-2.6-3.3.3-.8.7-1.4.8-1.4l2.2 1c6.2 3.2 14.5.8 12.5-3.6-.8-1.8-2.5-2.7-7.8-4-6-1.7-7.7-3.2-7.7-7 0-5.4 3.5-8.1 10.2-8.1 2.8 0 4.6.3 6.5 1.2 2.8 1.3 3 1.6 1.8 3.1-.7 1-.8 1-3.5-.1-4.9-2.1-9.5-1.4-10.5 1.7-1.1 3.1 0 4.2 6.5 6.2 6.9 2.2 9.1 3.9 9.1 7.4 0 2.3-1.3 4.3-3.8 6.2-2 1.5-10.4 1.9-13.7.7zM366.3 47.1c-1.5-1.2-1.5-1.5-1.8-7.8-.3-6.5-.3-6.5-2-6.7-1.5-.1-1.8-.4-1.8-1.5 0-1 .3-1.3 1.8-1.4 1.7-.2 1.7-.3 1.9-2.8.2-2.3.3-2.6 1.8-2.9l2-.4c.3 0 .5 1.2.7 2.9.3 3 .3 3 2.6 3.2 2 .1 2.4.3 2.4 1.5s-.3 1.3-2.5 1.3c-2.5 0-2.5 0-2.5 5.7 0 5.4.1 5.8 1.2 6.6a5 5 0 002.5.9c1 0 1.3.3 1.3 1.4 0 1.3-.2 1.3-3 1.3-2.4 0-3.4-.2-4.6-1.3zM380.2 47.2c-1.9-1.6-2.4-4.4-2.5-11.8 0-5.6 0-5.6 2.2-5.6s2.2 0 2.2 6.5c0 5.8.1 6.7 1.1 8 1.6 2 4 1.9 6-.2 1.7-1.6 1.7-1.7 1.7-8s0-6.3 2.2-6.3 2.2 0 2 9.2c-.1 9.2-.1 9.2-2.1 9.3-2 .2-2.1 0-2.1-1.2 0-1.5 0-1.5-1.7 0-2.3 1.8-6.9 2-9 0zM403 47c-4.7-4-4.3-13.6.8-16.7 2.5-1.6 6-1.4 8.7.3 2 1.4 2 1.4 2-4.1s0-5.5 2.2-5.5 2.2 0 2 13.6c0 13.6 0 13.6-2.1 13.7-1.8.2-2.1 0-2.1-.8 0-1.7-.6-1.9-2.3-.4-2.3 2-6.8 1.9-9.2 0zm9.7-2.6c1.4-1.2 1.5-1.7 1.5-5.3 0-3.7 0-4-1.8-5.5-2.4-2.2-4.6-2.2-6.8 0-1.6 1.6-1.6 1.9-1.4 5.6.1 3.4.4 4 1.7 5.2a5 5 0 006.8 0zM423.3 39.2c0-9.4 0-9.4 2.2-9.4s2.2 0 2 9.2c0 9.2 0 9.2-2.1 9.3-2.1.2-2.1.2-2.1-9.1zM435.7 47.4c-2.7-1.8-3.9-4.3-3.9-8.3 0-4.2 1-6.4 3.7-8.3 2.5-1.8 9-1.9 11.2-.2 2.6 2 3.6 3.8 3.9 7.2a10 10 0 01-4.2 9.4c-2.5 1.7-8.3 1.7-10.7.2zm9-3.3c1.4-1.4 1.7-2 1.7-4.7 0-1.7-.4-3.8-.9-4.6-1.5-3-6-3.6-8.3-1-.8.8-1 1.9-1 5.1 0 3.8.1 4.2 1.5 5.5 2.2 1.8 5 1.7 7-.3zM456.4 47.3c-3-1.8-2.1-4 .9-2.4 2 1 7.2 1 8.2.1 1.9-1.9 0-3.6-5-5-3.7-1-5.1-2-5.6-4.2-.9-3.9 3-7 8.3-6.5 3.5.3 6.7 2.4 5.6 3.6-.7.7-1.1.6-2.8-.1-2.2-.9-5.2-1.1-6.4-.3-.4.2-.6 1.2-.5 2.3.2 1.8.3 1.8 4.6 3 4.8 1.4 6.3 2.6 6.3 5.3 0 1.1-.6 2.2-1.9 3.5-1.8 1.8-2 1.8-5.9 1.8-3 0-4.5-.2-5.8-1zM264.1 22.8c.2-2 .2-2 2.4-2 2.1 0 2.2 0 2.2 1.8 0 1.9 0 2-2.4 2.1-2.4.2-2.4.2-2.2-2zM422.8 22.8c.2-2 .3-2 2.4-2 2.2 0 2.2 0 2.2 1.8 0 1.9 0 2-2.4 2.1-2.3.2-2.3.2-2.2-2z" fill="#E6949E"/>
</svg>