<!DOCTYPE svg PUBLIC "-//W3C//DTD SVG 20010904//EN" "http://www.w3.org/TR/2001/REC-SVG-20010904/DTD/svg10.dtd">
<svg version="1.0" xmlns="http://www.w3.org/2000/svg" width="256px" height="256px" viewBox="0 0 256 256" preserveAspectRatio="xMidYMid meet">
 <g id="layer101" fill="#fff1e6" stroke="none">
  <path d="M71.5 251.5 c-21.3 -4.4 -39.5 -20.8 -46.1 -41.5 -2.2 -7.2 -4.6 -9.8 -10 -10.6 -11.7 -1.7 -15.8 -13.7 -7.3 -20.9 2.8 -2.3 3.8 -2.5 12.9 -2.5 9.9 0 9.9 0 9.3 -4.8 -0.4 -3.7 0 -6 1.6 -9.8 2.9 -6.4 5.5 -9.2 11.6 -12 4.9 -2.3 5.8 -2.4 31.3 -2.4 28.5 0 29.9 -0.2 34.1 -5.6 1.2 -1.5 2.1 -4.1 2.1 -6.1 0 -1.9 0.5 -4.4 1.1 -5.5 0.9 -1.7 1.7 -1.9 5.2 -1.4 8.8 1.4 18.1 8.7 22.8 17.8 3 5.8 3.8 18.7 1.5 24.2 -0.9 2.1 -1.6 4.2 -1.6 4.7 0 0.5 4.7 0.9 10.5 0.9 11.9 0 15.5 1.2 18 6 3.9 7.6 -1.4 17 -9.7 17 -1.3 0 -3.7 0.9 -5.4 1.9 -2.5 1.5 -3.6 3.3 -5.2 8.8 -5.7 18.6 -21.6 34.4 -40.7 40.3 -9.1 2.8 -26.1 3.5 -36 1.5z m32.6 -7.1 c8.6 -2.6 16.3 -6.9 22.7 -12.9 7.6 -7 11.5 -13.1 15.2 -23.6 1.6 -4.5 3.7 -9.1 4.7 -10.2 2.2 -2.4 7.4 -4.7 10.8 -4.7 2.8 0 6.5 -3.1 6.5 -5.5 0 -0.8 -0.9 -2.4 -2 -3.5 -2 -2 -3.3 -2 -75.2 -2 -66.7 0 -73.3 0.1 -75 1.7 -3.7 3.4 -1 9.3 4.4 9.3 6.8 0 11.8 4.8 15.1 14.7 3.4 10 7 15.8 14.1 22.8 6.7 6.6 15.4 11.7 23.7 13.9 7.7 2.1 28 2.1 35 0z m30 -72.6 c2 -3.5 2.4 -5.7 2.4 -11.8 0 -6.4 -0.4 -8.2 -2.7 -12.2 -3.1 -5.1 -8.7 -10.2 -12.9 -11.7 -2.4 -0.8 -2.7 -0.7 -3.3 1.7 -0.8 4.1 -4 8.6 -8.2 11.8 -3.7 2.9 -3.7 2.9 -32.3 3.4 -31.1 0.5 -32.4 0.8 -37 6.6 -2.4 3.1 -4.4 9.4 -3.6 11.8 0.3 0.9 0.7 2.3 1 3.1 0.4 1.3 6.5 1.5 47.3 1.5 46.8 0 46.8 0 49.3 -4.2z"/>
  <path d="M241.9 201.2 c-1 -0.4 -26.6 -22.8 -57 -49.8 -30.5 -27 -57 -50.4 -58.9 -52.1 -3.4 -3 -4.3 -3.2 -23.5 -5.7 -20 -2.6 -20 -2.6 -34.2 -16.8 -7.9 -7.9 -14.3 -14.7 -14.3 -15.3 0 -1.3 57.2 -58.5 58.5 -58.5 0.6 0 7.4 6.4 15.2 14.2 14.2 14.3 14.2 14.3 16.8 34.3 2 15.2 3.1 20.5 4.4 22 1 1.1 23.3 26.3 49.6 56 26.3 29.7 49.2 55.5 50.8 57.3 5.3 5.5 3.6 13.2 -3.3 14.6 -1.4 0.3 -3.2 0.2 -4.1 -0.2z m3.9 -7.7 c-0.2 -0.8 -22.1 -26 -48.8 -56.1 -26.7 -30 -49.5 -55.8 -50.7 -57.3 -2.2 -2.6 -2.2 -2.6 -9.7 4.9 -4.2 4.1 -7.5 7.8 -7.4 8.1 0.6 1.6 114.4 101.8 115.6 101.9 0.8 0 1.2 -0.7 1 -1.5z m-114.1 -112.7 l9.1 -9.3 -2.1 -15.7 c-1.1 -8.7 -2.3 -15.8 -2.6 -15.8 -1 0 -45.6 44.9 -45.1 45.3 0.3 0.2 7.3 1.3 15.5 2.4 8.3 1.2 15.2 2.1 15.5 2.2 0.3 0 4.6 -4.1 9.7 -9.1z m-44.9 -22.5 l-10.8 -10.8 -7 7 -7 7 10.7 10.7 10.8 10.8 7 -7 7 -7 -10.7 -10.7z m31.5 -10.1 l15.7 -15.7 -10.8 -10.8 -10.7 -10.7 -7 7 -6.9 7 7.3 7.4 c6.4 6.4 7.3 7.7 6.1 9 -2.1 2.7 -3.9 1.8 -11.1 -5.1 l-7 -6.7 -6.7 6.7 -6.7 6.7 10.5 10.5 c5.8 5.8 10.7 10.5 11 10.5 0.3 0 7.6 -7.1 16.3 -15.8z"/>
</g>

</svg>