<!DOCTYPE svg PUBLIC "-//W3C//DTD SVG 20010904//EN" "http://www.w3.org/TR/2001/REC-SVG-20010904/DTD/svg10.dtd">
<svg version="1.0" xmlns="http://www.w3.org/2000/svg" width="256px" height="256px" viewBox="0 0 2560 2560" preserveAspectRatio="xMidYMid meet">
<g id="layer101" fill="#fff1e6" stroke="none">
 <path d="M1118 2430 c-339 -61 -617 -306 -721 -635 -102 -325 -19 -677 218 -921 73 -75 207 -174 256 -189 18 -6 12 -15 -51 -81 -72 -74 -85 -105 -46 -112 14 -3 87 64 262 239 l244 244 243 -243 c134 -134 250 -242 260 -242 42 0 29 32 -44 107 -41 41 -69 77 -63 79 34 13 145 86 200 132 139 114 259 310 305 497 28 112 30 282 5 397 -73 340 -318 604 -653 704 -73 22 -112 27 -228 30 -77 1 -161 -1 -187 -6z m332 -62 c148 -28 310 -112 427 -221 118 -110 218 -289 254 -452 21 -95 16 -294 -10 -390 -26 -97 -86 -225 -139 -297 -81 -110 -212 -221 -325 -274 -38 -18 -38 -18 -127 71 -50 49 -90 93 -90 96 0 4 27 17 61 29 123 46 246 147 314 259 110 182 119 414 23 605 -114 226 -340 357 -597 344 -227 -12 -421 -139 -520 -342 -52 -107 -66 -171 -65 -291 1 -80 7 -116 28 -180 64 -187 199 -329 376 -395 l62 -23 -95 -95 c-95 -94 -95 -94 -166 -57 -198 104 -363 315 -423 540 -25 96 -30 305 -9 400 22 101 71 213 132 305 195 291 541 434 889 368z m8 -314 c404 -135 522 -639 219 -938 -75 -75 -160 -125 -250 -148 -47 -12 -47 -12 -95 35 -26 26 -51 47 -55 47 -4 0 -30 -21 -57 -46 -45 -42 -53 -46 -84 -40 -70 13 -194 85 -259 150 -111 111 -162 235 -162 396 0 127 24 215 84 307 146 227 408 321 659 237z"/>
 <path d="M1107 542 c-86 -86 -157 -163 -157 -171 0 -8 28 -67 62 -132 l63 -119 205 0 206 0 64 125 65 124 -165 166 c-91 91 -169 165 -175 165 -6 0 -81 -71 -168 -158z m308 -52 l130 -130 -44 -83 c-24 -45 -48 -88 -54 -94 -7 -10 -54 -13 -173 -13 l-164 0 -47 95 -48 95 130 130 c71 72 132 130 135 130 3 0 64 -59 135 -130z"/>
 </g>

</svg>